<?xml version="1.0" standalone="no"?><!DOCTYPE svg PUBLIC "-//W3C//DTD SVG 1.1//EN" "http://www.w3.org/Graphics/SVG/1.1/DTD/svg11.dtd"><svg t="1630294832405" class="icon" viewBox="0 0 1024 1024" version="1.1" xmlns="http://www.w3.org/2000/svg" p-id="4531" xmlns:xlink="http://www.w3.org/1999/xlink" width="32" height="32"><defs><style type="text/css"></style></defs><path d="M285.5 772c1.9 5.6 2.9 11.6 2.9 17.9v111.7c0 30.8-25 55.8-55.8 55.8H120.8c-30.8 0-55.8-25-55.8-55.8V789.9c0-30.8 25-55.9 55.8-55.9h111.7c3.7 0 7.3 0.3 10.8 1.1l492.9-492.9c-0.7-3.6-1.1-7.2-1.1-10.8V119.7c0-30.8 25-55.8 55.9-55.8h111.7c30.8 0 55.8 25 55.8 55.8v111.7c0 30.8-25 55.8-55.8 55.8H791c-6.1 0-12.1-1-17.9-2.9L285.5 772z m511.9-37.9h105.4c30.8 0 55.8 25 55.8 55.9v111.7c0 30.8-25 55.8-55.8 55.8H791c-30.8 0-55.9-25-55.9-55.8V796.2l-49.5 49.5h-79l240.3-240.3v79l-49.5 49.7z m-580-446.8h-96.5c-30.8 0-55.8-25-55.8-55.8V119.7c0-30.8 25-55.8 55.8-55.8h111.7c30.8 0 55.8 25 55.8 55.8v96.5l40.7-40.7h79L176.7 406.9v-79l40.7-40.6zM645 175.6L176.7 643.9v-79L566 175.6h79z m201.9 272L448.7 845.8h-79l477.2-477.2v79z m0 0" p-id="4532" fill="#1296db"></path></svg>