<?xml version="1.0" standalone="no"?><!DOCTYPE svg PUBLIC "-//W3C//DTD SVG 1.1//EN" "http://www.w3.org/Graphics/SVG/1.1/DTD/svg11.dtd"><svg t="1630028283488" class="icon" viewBox="0 0 1024 1024" version="1.1" xmlns="http://www.w3.org/2000/svg" p-id="3757" xmlns:xlink="http://www.w3.org/1999/xlink" width="32" height="32"><defs><style type="text/css"></style></defs><path d="M512 0a512.085333 512.085333 0 0 0 0 1024A512.085333 512.085333 0 0 0 512 0zM80.554667 509.269333v-8.533333 8.533333z m467.797333 437.418667v-41.045333a35.072 35.072 0 0 0-34.730667-34.816 35.072 35.072 0 0 0-34.816 34.816v41.045333c-213.333333-17.322667-384.170667-186.538667-401.493333-399.872h42.666667A35.072 35.072 0 0 0 154.709333 512a35.072 35.072 0 0 0-34.730666-34.816h-42.666667c17.322667-213.333333 186.538667-384.085333 399.872-399.872v41.045333c0 19.029333 15.872 34.816 34.816 34.816a35.072 35.072 0 0 0 34.816-34.816V77.312a438.016 438.016 0 0 1 399.872 399.872h-39.509333a35.072 35.072 0 0 0-34.730667 34.816c0 18.944 15.786667 34.816 34.730667 34.816h39.509333c-17.322667 211.797333-186.538667 382.549333-398.336 399.872zM242.858667 552.021333l-1.536-11.093333H154.453333l3.157334 15.786667c23.722667 146.773333 143.530667 266.581333 290.218666 290.218666l15.786667 3.157334v-81.92l-11.093333-1.706667C342.357333 744.533333 260.266667 660.906667 242.944 552.106667z m1.621333-81.578666a267.946667 267.946667 0 0 1 208.213333-212.992L463.701333 256v-82.005333l-15.786666 3.157333c-146.688 23.637333-266.496 143.530667-290.133334 290.133333l-3.242666 15.786667h86.784l3.157333-12.544z m536.661333 1.536l1.536 11.093333h86.784l-3.157333-15.786667C842.581333 320.512 722.773333 200.704 576 177.066667l-15.786667-3.157334v86.698667l11.093334 1.621333C680.106667 285.866667 762.112 367.786667 781.056 471.893333z m-85.589333 40.789333v-12.458667c-6.314667-96.853333-83.114667-171.861333-180.394667-171.861333-50.261333 0-95.744 18.773333-131.754666 54.613333-34.56 34.389333-54.954667 82.858667-54.954667 131.242667 0 100.010667 83.114667 181.248 186.709333 181.248 98.816-3.157333 180.394667-82.773333 180.394667-182.784zM512 618.24c-59.733333 0-106.24-42.24-106.24-96.597333 0-54.357333 46.506667-96.597333 106.24-96.597334 59.733333 0 106.24 42.24 106.24 96.597334C618.24 576 571.733333 618.24 512 618.24z m267.52-66.218667c-22.101333 104.106667-104.106667 187.733333-209.749333 214.528l-9.472 3.157334v80.384l15.786666-3.157334c146.688-23.637333 266.496-143.530667 290.133334-290.133333l3.242666-15.786667H782.677333l-3.157333 11.008z" fill="#1296db" p-id="3758"></path></svg>